Wavefont-Regular.ufo
<glyph name="_8" format="2">
	<unicode hex="0108"/>
	<unicode hex="0065"/>
	<advance width="400"/>
	<outline>
		<component base="cap"/>
		<component base="cap" yOffset="80"/>
		<contour>
			<point x="0" y="0" type="line"/>
			<point x="0" y="80" type="line"/>
			<point x="400" y="80" type="line"/>
			<point x="400" y="0" type="line"/>
		</contour>
	</outline>
</glyph>
<glyph name="_10" format="2">
	<unicode hex="010A"/>
	<unicode hex="0031"/>
	<unicode hex="0066"/>
	<advance width="400"/>
	<outline>
		<component base="cap"/>
		<component base="cap" yOffset="100"/>
		<contour>
			<point x="0" y="0" type="line"/>
			<point x="0" y="100" type="line"/>
			<point x="400" y="100" type="line"/>
			<point x="400" y="0" type="line"/>
		</contour>
	</outline>
</glyph>
<glyph name="_14" format="2">
  <advance width="400"/>
  <unicode hex="10E"/>
  <unicode hex="2582"/><unicode hex="68"/>
  <outline>
    <component base="cap" xOffset="0" yOffset="0" />
    <component base="cap" xOffset="0" yOffset="140" />
    <contour>
      <point x="0" y="0" type="line"/>
      <point x="0" y="140" type="line"/>
      <point x="400" y="140" type="line"/>
      <point x="400" y="0" type="line"/>
    </contour>
  </outline>
</glyph>
<glyph name="_30" format="2">
  <advance width="400"/>
  <unicode hex="11E"/>
  <unicode hex="33"/><unicode hex="70"/>
  <outline>
    <component base="cap" xOffset="0" yOffset="0" />
    <component base="cap" xOffset="0" yOffset="300" />
    <contour>
      <point x="0" y="0" type="line"/>
      <point x="0" y="300" type="line"/>
      <point x="400" y="300" type="line"/>
      <point x="400" y="0" type="line"/>
    </contour>
  </outline>
</glyph>
<glyph name="_39" format="2">
  <advance width="400"/>
  <unicode hex="127"/>
  
  <outline>
    <component base="cap" xOffset="0" yOffset="0" />
    <component base="cap" xOffset="0" yOffset="390" />
    <contour>
      <point x="0" y="0" type="line"/>
      <point x="0" y="390" type="line"/>
      <point x="400" y="390" type="line"/>
      <point x="400" y="0" type="line"/>
    </contour>
  </outline>
</glyph>
<glyph name="_47" format="2">
	<unicode hex="012F"/>
	<advance width="400"/>
	<outline>
		<component base="cap"/>
		<component base="cap" yOffset="470"/>
		<contour>
			<point x="0" y="0" type="line"/>
			<point x="0" y="470" type="line"/>
			<point x="400" y="470" type="line"/>
			<point x="400" y="0" type="line"/>
		</contour>
	</outline>
</glyph>
<glyph name="_48" format="2">
  <advance width="400"/>
  <unicode hex="130"/>
  <unicode hex="79"/>
  <outline>
    <component base="cap" xOffset="0" yOffset="0" />
    <component base="cap" xOffset="0" yOffset="480" />
    <contour>
      <point x="0" y="0" type="line"/>
      <point x="0" y="480" type="line"/>
      <point x="400" y="480" type="line"/>
      <point x="400" y="0" type="line"/>
    </contour>
  </outline>
</glyph>
<glyph name="_53" format="2">
	<unicode hex="0135"/>
	<advance width="400"/>
	<outline>
		<component base="cap"/>
		<component base="cap" yOffset="530"/>
		<contour>
			<point x="0" y="0" type="line"/>
			<point x="0" y="530" type="line"/>
			<point x="400" y="530" type="line"/>
			<point x="400" y="0" type="line"/>
		</contour>
	</outline>
</glyph>
<glyph name="_59" format="2">
  <advance width="400"/>
  <unicode hex="13B"/>
  
  <outline>
    <component base="cap" xOffset="0" yOffset="0" />
    <component base="cap" xOffset="0" yOffset="590" />
    <contour>
      <point x="0" y="0" type="line"/>
      <point x="0" y="590" type="line"/>
      <point x="400" y="590" type="line"/>
      <point x="400" y="0" type="line"/>
    </contour>
  </outline>
</glyph>
<glyph name="_61" format="2">
  <advance width="400"/>
  <unicode hex="13D"/>
  
  <outline>
    <component base="cap" xOffset="0" yOffset="0" />
    <component base="cap" xOffset="0" yOffset="610" />
    <contour>
      <point x="0" y="0" type="line"/>
      <point x="0" y="610" type="line"/>
      <point x="400" y="610" type="line"/>
      <point x="400" y="0" type="line"/>
    </contour>
  </outline>
</glyph>
<glyph name="_62" format="2">
  <advance width="400"/>
  <unicode hex="13E"/>
  <unicode hex="46"/>
  <outline>
    <component base="cap" xOffset="0" yOffset="0" />
    <component base="cap" xOffset="0" yOffset="620" />
    <contour>
      <point x="0" y="0" type="line"/>
      <point x="0" y="620" type="line"/>
      <point x="400" y="620" type="line"/>
      <point x="400" y="0" type="line"/>
    </contour>
  </outline>
</glyph>
<glyph name="_64" format="2">
  <advance width="400"/>
  <unicode hex="140"/>
  <unicode hex="47"/>
  <outline>
    <component base="cap" xOffset="0" yOffset="0" />
    <component base="cap" xOffset="0" yOffset="640" />
    <contour>
      <point x="0" y="0" type="line"/>
      <point x="0" y="640" type="line"/>
      <point x="400" y="640" type="line"/>
      <point x="400" y="0" type="line"/>
    </contour>
  </outline>
</glyph>
<glyph name="_68" format="2">
  <advance width="400"/>
  <unicode hex="144"/>
  <unicode hex="49"/>
  <outline>
    <component base="cap" xOffset="0" yOffset="0" />
    <component base="cap" xOffset="0" yOffset="680" />
    <contour>
      <point x="0" y="0" type="line"/>
      <point x="0" y="680" type="line"/>
      <point x="400" y="680" type="line"/>
      <point x="400" y="0" type="line"/>
    </contour>
  </outline>
</glyph>
<glyph name="_74" format="2">
  <advance width="400"/>
  <unicode hex="14A"/>
  <unicode hex="4C"/>
  <outline>
    <component base="cap" xOffset="0" yOffset="0" />
    <component base="cap" xOffset="0" yOffset="740" />
    <contour>
      <point x="0" y="0" type="line"/>
      <point x="0" y="740" type="line"/>
      <point x="400" y="740" type="line"/>
      <point x="400" y="0" type="line"/>
    </contour>
  </outline>
</glyph>
<glyph name="_76" format="2">
  <advance width="400"/>
  <unicode hex="14C"/>
  <unicode hex="4D"/>
  <outline>
    <component base="cap" xOffset="0" yOffset="0" />
    <component base="cap" xOffset="0" yOffset="760" />
    <contour>
      <point x="0" y="0" type="line"/>
      <point x="0" y="760" type="line"/>
      <point x="400" y="760" type="line"/>
      <point x="400" y="0" type="line"/>
    </contour>
  </outline>
</glyph>
<glyph name="_77" format="2">
  <advance width="400"/>
  <unicode hex="14D"/>
  
  <outline>
    <component base="cap" xOffset="0" yOffset="0" />
    <component base="cap" xOffset="0" yOffset="770" />
    <contour>
      <point x="0" y="0" type="line"/>
      <point x="0" y="770" type="line"/>
      <point x="400" y="770" type="line"/>
      <point x="400" y="0" type="line"/>
    </contour>
  </outline>
</glyph>
<glyph name="_91" format="2">
  <advance width="400"/>
  <unicode hex="15B"/>
  
  <outline>
    <component base="cap" xOffset="0" yOffset="0" />
    <component base="cap" xOffset="0" yOffset="910" />
    <contour>
      <point x="0" y="0" type="line"/>
      <point x="0" y="910" type="line"/>
      <point x="400" y="910" type="line"/>
      <point x="400" y="0" type="line"/>
    </contour>
  </outline>
</glyph>
<glyph name="_95" format="2">
  <advance width="400"/>
  <unicode hex="15F"/>
  
  <outline>
    <component base="cap" xOffset="0" yOffset="0" />
    <component base="cap" xOffset="0" yOffset="950" />
    <contour>
      <point x="0" y="0" type="line"/>
      <point x="0" y="950" type="line"/>
      <point x="400" y="950" type="line"/>
      <point x="400" y="0" type="line"/>
    </contour>
  </outline>
</glyph>
<glyph name="_103" format="2">
  <advance width="400"/>
  <unicode hex="167"/>
  
  <outline>
    <component base="cap" xOffset="0" yOffset="0" />
    <component base="cap" xOffset="0" yOffset="1030" />
    <contour>
      <point x="0" y="0" type="line"/>
      <point x="0" y="1030" type="line"/>
      <point x="400" y="1030" type="line"/>
      <point x="400" y="0" type="line"/>
    </contour>
  </outline>
</glyph>
<glyph name="_3.center" format="2">
	<unicode hex="0403"/>
	<advance width="400"/>
	<outline>
		<component base="cap" yOffset="485"/>
		<component base="cap" yOffset="515"/>
		<contour>
			<point x="0" y="485" type="line"/>
			<point x="0" y="515" type="line"/>
			<point x="400" y="515" type="line"/>
			<point x="400" y="485" type="line"/>
		</contour>
	</outline>
</glyph>
<glyph name="_5.center" format="2">
	<unicode hex="0405"/>
	<advance width="400"/>
	<outline>
		<component base="cap" yOffset="475"/>
		<component base="cap" yOffset="525"/>
		<contour>
			<point x="0" y="475" type="line"/>
			<point x="0" y="525" type="line"/>
			<point x="400" y="525" type="line"/>
			<point x="400" y="475" type="line"/>
		</contour>
	</outline>
</glyph>
<glyph name="_9.center" format="2">
  <advance width="400"/>
  <unicode hex="409"/>
  
  <outline>
    <component base="cap" xOffset="0" yOffset="455" />
    <component base="cap" xOffset="0" yOffset="545" />
    <contour>
      <point x="0" y="455" type="line"/>
      <point x="0" y="545" type="line"/>
      <point x="400" y="545" type="line"/>
      <point x="400" y="455" type="line"/>
    </contour>
  </outline>
</glyph>
<glyph name="_16.center" format="2">
	<unicode hex="0410"/>
	<advance width="400"/>
	<outline>
		<component base="cap" yOffset="420"/>
		<component base="cap" yOffset="580"/>
		<contour>
			<point x="0" y="420" type="line"/>
			<point x="0" y="580" type="line"/>
			<point x="400" y="580" type="line"/>
			<point x="400" y="420" type="line"/>
		</contour>
	</outline>
</glyph>
<glyph name="_18.center" format="2">
	<unicode hex="0412"/>
	<advance width="400"/>
	<outline>
		<component base="cap" yOffset="410"/>
		<component base="cap" yOffset="590"/>
		<contour>
			<point x="0" y="410" type="line"/>
			<point x="0" y="590" type="line"/>
			<point x="400" y="590" type="line"/>
			<point x="400" y="410" type="line"/>
		</contour>
	</outline>
</glyph>
<glyph name="_27.center" format="2">
	<unicode hex="041B"/>
	<advance width="400"/>
	<outline>
		<component base="cap" yOffset="365"/>
		<component base="cap" yOffset="635"/>
		<contour>
			<point x="0" y="365" type="line"/>
			<point x="0" y="635" type="line"/>
			<point x="400" y="635" type="line"/>
			<point x="400" y="365" type="line"/>
		</contour>
	</outline>
</glyph>
<glyph name="_30.center" format="2">
	<unicode hex="041E"/>
	<advance width="400"/>
	<outline>
		<component base="cap" yOffset="350"/>
		<component base="cap" yOffset="650"/>
		<contour>
			<point x="0" y="350" type="line"/>
			<point x="0" y="650" type="line"/>
			<point x="400" y="650" type="line"/>
			<point x="400" y="350" type="line"/>
		</contour>
	</outline>
</glyph>
<glyph name="_33.center" format="2">
  <advance width="400"/>
  <unicode hex="421"/>
  
  <outline>
    <component base="cap" xOffset="0" yOffset="335" />
    <component base="cap" xOffset="0" yOffset="665" />
    <contour>
      <point x="0" y="335" type="line"/>
      <point x="0" y="665" type="line"/>
      <point x="400" y="665" type="line"/>
      <point x="400" y="335" type="line"/>
    </contour>
  </outline>
</glyph>
<glyph name="_34.center" format="2">
	<unicode hex="0422"/>
	<advance width="400"/>
	<outline>
		<component base="cap" yOffset="330"/>
		<component base="cap" yOffset="670"/>
		<contour>
			<point x="0" y="330" type="line"/>
			<point x="0" y="670" type="line"/>
			<point x="400" y="670" type="line"/>
			<point x="400" y="330" type="line"/>
		</contour>
	</outline>
</glyph>
<glyph name="_39.center" format="2">
	<unicode hex="0427"/>
	<advance width="400"/>
	<outline>
		<component base="cap" yOffset="305"/>
		<component base="cap" yOffset="695"/>
		<contour>
			<point x="0" y="305" type="line"/>
			<point x="0" y="695" type="line"/>
			<point x="400" y="695" type="line"/>
			<point x="400" y="305" type="line"/>
		</contour>
	</outline>
</glyph>
<glyph name="_42.center" format="2">
	<unicode hex="042A"/>
	<advance width="400"/>
	<outline>
		<component base="cap" yOffset="290"/>
		<component base="cap" yOffset="710"/>
		<contour>
			<point x="0" y="290" type="line"/>
			<point x="0" y="710" type="line"/>
			<point x="400" y="710" type="line"/>
			<point x="400" y="290" type="line"/>
		</contour>
	</outline>
</glyph>
<glyph name="_45.center" format="2">
  <advance width="400"/>
  <unicode hex="42D"/>
  
  <outline>
    <component base="cap" xOffset="0" yOffset="275" />
    <component base="cap" xOffset="0" yOffset="725" />
    <contour>
      <point x="0" y="275" type="line"/>
      <point x="0" y="725" type="line"/>
      <point x="400" y="725" type="line"/>
      <point x="400" y="275" type="line"/>
    </contour>
  </outline>
</glyph>
<glyph name="_47.center" format="2">
	<unicode hex="042F"/>
	<advance width="400"/>
	<outline>
		<component base="cap" yOffset="265"/>
		<component base="cap" yOffset="735"/>
		<contour>
			<point x="0" y="265" type="line"/>
			<point x="0" y="735" type="line"/>
			<point x="400" y="735" type="line"/>
			<point x="400" y="265" type="line"/>
		</contour>
	</outline>
</glyph>
<glyph name="_49.center" format="2">
	<unicode hex="0431"/>
	<advance width="400"/>
	<outline>
		<component base="cap" yOffset="255"/>
		<component base="cap" yOffset="745"/>
		<contour>
			<point x="0" y="255" type="line"/>
			<point x="0" y="745" type="line"/>
			<point x="400" y="745" type="line"/>
			<point x="400" y="255" type="line"/>
		</contour>
	</outline>
</glyph>
<glyph name="_54.center" format="2">
  <advance width="400"/>
  <unicode hex="436"/>
  
  <outline>
    <component base="cap" xOffset="0" yOffset="230" />
    <component base="cap" xOffset="0" yOffset="770" />
    <contour>
      <point x="0" y="230" type="line"/>
      <point x="0" y="770" type="line"/>
      <point x="400" y="770" type="line"/>
      <point x="400" y="230" type="line"/>
    </contour>
  </outline>
</glyph>
<glyph name="_62.center" format="2">
	<unicode hex="043E"/>
	<advance width="400"/>
	<outline>
		<component base="cap" yOffset="190"/>
		<component base="cap" yOffset="810"/>
		<contour>
			<point x="0" y="190" type="line"/>
			<point x="0" y="810" type="line"/>
			<point x="400" y="810" type="line"/>
			<point x="400" y="190" type="line"/>
		</contour>
	</outline>
</glyph>
<glyph name="_65.center" format="2">
	<unicode hex="0441"/>
	<advance width="400"/>
	<outline>
		<component base="cap" yOffset="175"/>
		<component base="cap" yOffset="825"/>
		<contour>
			<point x="0" y="175" type="line"/>
			<point x="0" y="825" type="line"/>
			<point x="400" y="825" type="line"/>
			<point x="400" y="175" type="line"/>
		</contour>
	</outline>
</glyph>
<glyph name="_68.center" format="2">
  <advance width="400"/>
  <unicode hex="444"/>
  
  <outline>
    <component base="cap" xOffset="0" yOffset="160" />
    <component base="cap" xOffset="0" yOffset="840" />
    <contour>
      <point x="0" y="160" type="line"/>
      <point x="0" y="840" type="line"/>
      <point x="400" y="840" type="line"/>
      <point x="400" y="160" type="line"/>
    </contour>
  </outline>
</glyph>
<glyph name="_70.center" format="2">
	<unicode hex="0446"/>
	<advance width="400"/>
	<outline>
		<component base="cap" yOffset="150"/>
		<component base="cap" yOffset="850"/>
		<contour>
			<point x="0" y="150" type="line"/>
			<point x="0" y="850" type="line"/>
			<point x="400" y="850" type="line"/>
			<point x="400" y="150" type="line"/>
		</contour>
	</outline>
</glyph>
<glyph name="_73.center" format="2">
  <advance width="400"/>
  <unicode hex="449"/>
  
  <outline>
    <component base="cap" xOffset="0" yOffset="135" />
    <component base="cap" xOffset="0" yOffset="865" />
    <contour>
      <point x="0" y="135" type="line"/>
      <point x="0" y="865" type="line"/>
      <point x="400" y="865" type="line"/>
      <point x="400" y="135" type="line"/>
    </contour>
  </outline>
</glyph>
<glyph name="_78.center" format="2">
  <advance width="400"/>
  <unicode hex="44E"/>
  
  <outline>
    <component base="cap" xOffset="0" yOffset="110" />
    <component base="cap" xOffset="0" yOffset="890" />
    <contour>
      <point x="0" y="110" type="line"/>
      <point x="0" y="890" type="line"/>
      <point x="400" y="890" type="line"/>
      <point x="400" y="110" type="line"/>
    </contour>
  </outline>
</glyph>
<glyph name="_80.center" format="2">
	<unicode hex="0450"/>
	<advance width="400"/>
	<outline>
		<component base="cap" yOffset="100"/>
		<component base="cap" yOffset="900"/>
		<contour>
			<point x="0" y="100" type="line"/>
			<point x="0" y="900" type="line"/>
			<point x="400" y="900" type="line"/>
			<point x="400" y="100" type="line"/>
		</contour>
	</outline>
</glyph>
<glyph name="_85.center" format="2">
	<unicode hex="0455"/>
	<advance width="400"/>
	<outline>
		<component base="cap" yOffset="75"/>
		<component base="cap" yOffset="925"/>
		<contour>
			<point x="0" y="75" type="line"/>
			<point x="0" y="925" type="line"/>
			<point x="400" y="925" type="line"/>
			<point x="400" y="75" type="line"/>
		</contour>
	</outline>
</glyph>
<glyph name="_90.center" format="2">
	<unicode hex="045A"/>
	<advance width="400"/>
	<outline>
		<component base="cap" yOffset="50"/>
		<component base="cap" yOffset="950"/>
		<contour>
			<point x="0" y="50" type="line"/>
			<point x="0" y="950" type="line"/>
			<point x="400" y="950" type="line"/>
			<point x="400" y="50" type="line"/>
		</contour>
	</outline>
</glyph>
<glyph name="_95.center" format="2">
  <advance width="400"/>
  <unicode hex="45F"/>
  
  <outline>
    <component base="cap" xOffset="0" yOffset="25" />
    <component base="cap" xOffset="0" yOffset="975" />
    <contour>
      <point x="0" y="25" type="line"/>
      <point x="0" y="975" type="line"/>
      <point x="400" y="975" type="line"/>
      <point x="400" y="25" type="line"/>
    </contour>
  </outline>
</glyph>
<glyph name="_96.center" format="2">
	<unicode hex="0460"/>
	<advance width="400"/>
	<outline>
		<component base="cap" yOffset="20"/>
		<component base="cap" yOffset="980"/>
		<contour>
			<point x="0" y="20" type="line"/>
			<point x="0" y="980" type="line"/>
			<point x="400" y="980" type="line"/>
			<point x="400" y="20" type="line"/>
		</contour>
	</outline>
</glyph>
<glyph name="_97.center" format="2">
	<unicode hex="0461"/>
	<advance width="400"/>
	<outline>
		<component base="cap" yOffset="15"/>
		<component base="cap" yOffset="985"/>
		<contour>
			<point x="0" y="15" type="line"/>
			<point x="0" y="985" type="line"/>
			<point x="400" y="985" type="line"/>
			<point x="400" y="15" type="line"/>
		</contour>
	</outline>
</glyph>
<glyph name="_103.center" format="2">
  <advance width="400"/>
  <unicode hex="467"/>
  
  <outline>
    <component base="cap" xOffset="0" yOffset="-15" />
    <component base="cap" xOffset="0" yOffset="1015" />
    <contour>
      <point x="0" y="-15" type="line"/>
      <point x="0" y="1015" type="line"/>
      <point x="400" y="1015" type="line"/>
      <point x="400" y="-15" type="line"/>
    </contour>
  </outline>
</glyph>
<glyph name="_104.center" format="2">
  <advance width="400"/>
  <unicode hex="468"/>
  
  <outline>
    <component base="cap" xOffset="0" yOffset="-20" />
    <component base="cap" xOffset="0" yOffset="1020" />
    <contour>
      <point x="0" y="-20" type="line"/>
      <point x="0" y="1020" type="line"/>
      <point x="400" y="1020" type="line"/>
      <point x="400" y="-20" type="line"/>
    </contour>
  </outline>
</glyph>
<glyph name="_27.clip.center" format="2">
  <advance width="400"/>
  
  <outline>
    <contour>
        <point x="0" y="635"/>

        <point x="0" y="635"/>
        <point x="0" y="635" type="curve" smooth="yes"/>
        <point x="400" y="635" type="line"/>
        <point x="400" y="635"/>

        <point x="400" y="635"/>
        <point x="400" y="635" type="curve" smooth="yes"/>
        <point x="400" y="365" type="line"/>
        <point x="400" y="365"/>

        <point x="400" y="365"/>
        <point x="400" y="365" type="curve" smooth="yes"/>
        <point x="0" y="365" type="line"/>
        <point x="0" y="365"/>

        <point x="0" y="365"/>
        <point x="0" y="365" type="curve" smooth="yes"/>
        <point x="0" y="635" type="line"/>
    </contour>
  </outline>
</glyph>
<glyph name="_29.clip.center" format="2">
  <advance width="400"/>
  
  <outline>
    <contour>
        <point x="0" y="645"/>

        <point x="0" y="645"/>
        <point x="0" y="645" type="curve" smooth="yes"/>
        <point x="400" y="645" type="line"/>
        <point x="400" y="645"/>

        <point x="400" y="645"/>
        <point x="400" y="645" type="curve" smooth="yes"/>
        <point x="400" y="355" type="line"/>
        <point x="400" y="355"/>

        <point x="400" y="355"/>
        <point x="400" y="355" type="curve" smooth="yes"/>
        <point x="0" y="355" type="line"/>
        <point x="0" y="355"/>

        <point x="0" y="355"/>
        <point x="0" y="355" type="curve" smooth="yes"/>
        <point x="0" y="645" type="line"/>
    </contour>
  </outline>
</glyph>
<glyph name="_30.clip.center" format="2">
  <advance width="400"/>
  
  <outline>
    <contour>
        <point x="0" y="650"/>

        <point x="0" y="650"/>
        <point x="0" y="650" type="curve" smooth="yes"/>
        <point x="400" y="650" type="line"/>
        <point x="400" y="650"/>

        <point x="400" y="650"/>
        <point x="400" y="650" type="curve" smooth="yes"/>
        <point x="400" y="350" type="line"/>
        <point x="400" y="350"/>

        <point x="400" y="350"/>
        <point x="400" y="350" type="curve" smooth="yes"/>
        <point x="0" y="350" type="line"/>
        <point x="0" y="350"/>

        <point x="0" y="350"/>
        <point x="0" y="350" type="curve" smooth="yes"/>
        <point x="0" y="650" type="line"/>
    </contour>
  </outline>
</glyph>
<glyph name="_32.clip.center" format="2">
	<advance width="400"/>
	<outline>
		<contour>
			<point x="0" y="660"/>
			<point x="0" y="660"/>
			<point x="0" y="660" type="curve" smooth="yes"/>
			<point x="400" y="660" type="line"/>
			<point x="400" y="660"/>
			<point x="400" y="660"/>
			<point x="400" y="660" type="curve" smooth="yes"/>
			<point x="400" y="340" type="line"/>
			<point x="400" y="340"/>
			<point x="400" y="340"/>
			<point x="400" y="340" type="curve" smooth="yes"/>
			<point x="0" y="340" type="line"/>
			<point x="0" y="340"/>
			<point x="0" y="340"/>
			<point x="0" y="340" type="curve" smooth="yes"/>
			<point x="0" y="660" type="line"/>
		</contour>
	</outline>
</glyph>
<glyph name="_33.clip.center" format="2">
  <advance width="400"/>
  
  <outline>
    <contour>
        <point x="0" y="665"/>

        <point x="0" y="665"/>
        <point x="0" y="665" type="curve" smooth="yes"/>
        <point x="400" y="665" type="line"/>
        <point x="400" y="665"/>

        <point x="400" y="665"/>
        <point x="400" y="665" type="curve" smooth="yes"/>
        <point x="400" y="335" type="line"/>
        <point x="400" y="335"/>

        <point x="400" y="335"/>
        <point x="400" y="335" type="curve" smooth="yes"/>
        <point x="0" y="335" type="line"/>
        <point x="0" y="335"/>

        <point x="0" y="335"/>
        <point x="0" y="335" type="curve" smooth="yes"/>
        <point x="0" y="665" type="line"/>
    </contour>
  </outline>
</glyph>
<glyph name="_36.clip" format="2">
  <advance width="400"/>
  
  <outline>
    <contour>
        <point x="0" y="360"/>

        <point x="0" y="360"/>
        <point x="0" y="360" type="curve" smooth="yes"/>
        <point x="400" y="360" type="line"/>
        <point x="400" y="360"/>

        <point x="400" y="360"/>
        <point x="400" y="360" type="curve" smooth="yes"/>
        <point x="400" y="0" type="line"/>
        <point x="400" y="0"/>

        <point x="400" y="0"/>
        <point x="400" y="0" type="curve" smooth="yes"/>
        <point x="0" y="0" type="line"/>
        <point x="0" y="0"/>

        <point x="0" y="0"/>
        <point x="0" y="0" type="curve" smooth="yes"/>
        <point x="0" y="360" type="line"/>
    </contour>
  </outline>
</glyph>
<glyph name="_38.clip.center" format="2">
  <advance width="400"/>
  
  <outline>
    <contour>
        <point x="0" y="690"/>

        <point x="0" y="690"/>
        <point x="0" y="690" type="curve" smooth="yes"/>
        <point x="400" y="690" type="line"/>
        <point x="400" y="690"/>

        <point x="400" y="690"/>
        <point x="400" y="690" type="curve" smooth="yes"/>
        <point x="400" y="310" type="line"/>
        <point x="400" y="310"/>

        <point x="400" y="310"/>
        <point x="400" y="310" type="curve" smooth="yes"/>
        <point x="0" y="310" type="line"/>
        <point x="0" y="310"/>

        <point x="0" y="310"/>
        <point x="0" y="310" type="curve" smooth="yes"/>
        <point x="0" y="690" type="line"/>
    </contour>
  </outline>
</glyph>
<glyph name="_39.clip.center" format="2">
  <advance width="400"/>
  
  <outline>
    <contour>
        <point x="0" y="695"/>

        <point x="0" y="695"/>
        <point x="0" y="695" type="curve" smooth="yes"/>
        <point x="400" y="695" type="line"/>
        <point x="400" y="695"/>

        <point x="400" y="695"/>
        <point x="400" y="695" type="curve" smooth="yes"/>
        <point x="400" y="305" type="line"/>
        <point x="400" y="305"/>

        <point x="400" y="305"/>
        <point x="400" y="305" type="curve" smooth="yes"/>
        <point x="0" y="305" type="line"/>
        <point x="0" y="305"/>

        <point x="0" y="305"/>
        <point x="0" y="305" type="curve" smooth="yes"/>
        <point x="0" y="695" type="line"/>
    </contour>
  </outline>
</glyph>
<glyph name="_5.clip.center" format="2">
	<advance width="400"/>
	<outline>
		<contour>
			<point x="0" y="525"/>
			<point x="0" y="525"/>
			<point x="0" y="525" type="curve" smooth="yes"/>
			<point x="400" y="525" type="line"/>
			<point x="400" y="525"/>
			<point x="400" y="525"/>
			<point x="400" y="525" type="curve" smooth="yes"/>
			<point x="400" y="475" type="line"/>
			<point x="400" y="475"/>
			<point x="400" y="475"/>
			<point x="400" y="475" type="curve" smooth="yes"/>
			<point x="0" y="475" type="line"/>
			<point x="0" y="475"/>
			<point x="0" y="475"/>
			<point x="0" y="475" type="curve" smooth="yes"/>
			<point x="0" y="525" type="line"/>
		</contour>
	</outline>
</glyph>
<glyph name="_8.clip.center" format="2">
  <advance width="400"/>
  
  <outline>
    <contour>
        <point x="0" y="540"/>

        <point x="0" y="540"/>
        <point x="0" y="540" type="curve" smooth="yes"/>
        <point x="400" y="540" type="line"/>
        <point x="400" y="540"/>

        <point x="400" y="540"/>
        <point x="400" y="540" type="curve" smooth="yes"/>
        <point x="400" y="460" type="line"/>
        <point x="400" y="460"/>

        <point x="400" y="460"/>
        <point x="400" y="460" type="curve" smooth="yes"/>
        <point x="0" y="460" type="line"/>
        <point x="0" y="460"/>

        <point x="0" y="460"/>
        <point x="0" y="460" type="curve" smooth="yes"/>
        <point x="0" y="540" type="line"/>
    </contour>
  </outline>
</glyph>
<glyph name="_9.clip.center" format="2">
  <advance width="400"/>
  
  <outline>
    <contour>
        <point x="0" y="545"/>

        <point x="0" y="545"/>
        <point x="0" y="545" type="curve" smooth="yes"/>
        <point x="400" y="545" type="line"/>
        <point x="400" y="545"/>

        <point x="400" y="545"/>
        <point x="400" y="545" type="curve" smooth="yes"/>
        <point x="400" y="455" type="line"/>
        <point x="400" y="455"/>

        <point x="400" y="455"/>
        <point x="400" y="455" type="curve" smooth="yes"/>
        <point x="0" y="455" type="line"/>
        <point x="0" y="455"/>

        <point x="0" y="455"/>
        <point x="0" y="455" type="curve" smooth="yes"/>
        <point x="0" y="545" type="line"/>
    </contour>
  </outline>
</glyph>
